<svg xmlns="http://www.w3.org/2000/svg" width="805" height="600"><rect width="805" height="600" x="0" y="0" fill="#ffffff" id="background"/><g transform="translate(10,10)" id="visualization"><g><rect x="780" y="-5.684341886080802e-14" height="2.823529411764696" width="5" fill="black"><title>Boedo: 1</title></rect><rect x="780" y="7.823529411764639" height="2.823529411764696" width="5" fill="black"><title>Villa Urquiza: 1</title></rect><rect x="780" y="15.647058823529335" height="2.823529411764696" width="5" fill="black"><title>Agronomía: 1</title></rect><rect x="780" y="23.47058823529403" height="2.823529411764696" width="5" fill="black"><title>Villa Ortúzar: 1</title></rect><rect x="780" y="31.294117647058727" height="2.823529411764696" width="5" fill="black"><title>Villa Pueyrredón: 1</title></rect><rect x="780" y="39.11764705882342" height="2.823529411764696" width="5" fill="black"><title>Santa Clara del Mar: 1</title></rect><rect x="780" y="46.94117647058812" height="2.823529411764696" width="5" fill="black"><title>Mar del Plata: 1</title></rect><rect x="780" y="54.764705882352814" height="2.8235294117647527" width="5" fill="black"><title>Villa Crespo: 1</title></rect><rect x="780" y="62.58823529411757" height="2.8235294117647527" width="5" fill="black"><title>San Nicolás: 1</title></rect><rect x="780" y="70.41176470588232" height="8.470588235294144" width="5" fill="black"><title>Balvanera: 3</title></rect><rect x="780" y="83.88235294117646" height="11.29411764705884" width="5" fill="black"><title>Caballito: 4</title></rect><rect x="780" y="100.1764705882353" height="16.941176470588232" width="5" fill="black"><title>Saavedra: 6</title></rect><rect x="780" y="122.11764705882354" height="16.94117647058829" width="5" fill="black"><title>Parque Chacabuco: 6</title></rect><rect x="780" y="144.05882352941182" height="19.764705882352928" width="5" fill="black"><title>Villa del Parque: 7</title></rect><rect x="780" y="168.82352941176475" height="22.588235294117624" width="5" fill="black"><title>Almagro: 8</title></rect><rect x="780" y="196.41176470588238" height="25.411764705882376" width="5" fill="black"><title>San Telmo: 9</title></rect><rect x="780" y="226.82352941176475" height="39.529411764705856" width="5" fill="black"><title>Puerto Madero: 14</title></rect><rect x="780" y="271.3529411764706" height="42.35294117647061" width="5" fill="black"><title>Belgrano: 15</title></rect><rect x="0" y="40" height="53.64705882352939" width="5" fill="black"><title>bus: 19</title></rect><rect x="0" y="98.64705882352939" height="70.58823529411762" width="5" fill="black"><title>cycling: 25</title></rect><rect x="780" y="318.7058823529412" height="70.58823529411768" width="5" fill="black"><title>Monserrat: 25</title></rect><rect x="780" y="394.2941176470589" height="79.05882352941177" width="5" fill="black"><title>Recoleta: 28</title></rect><rect x="0" y="174.23529411764702" height="90.35294117647061" width="5" fill="black"><title>subway: 32</title></rect><rect x="780" y="478.35294117647067" height="101.64705882352945" width="5" fill="black"><title>Palermo: 36</title></rect><rect x="0" y="269.5882352941176" height="110.11764705882354" width="5" fill="black"><title>walking: 39</title></rect><rect x="0" y="384.70588235294116" height="155.29411764705884" width="5" fill="black"><title>in passenger vehicle: 55</title></rect></g><g fill="none" stroke-opacity="1"><g style="mix-blend-mode: multiply;"><path d="M5,361.3529411764705C392.5,361.3529411764705,392.5,533.4117647058824,780,533.4117647058824" stroke="#00dca6" stroke-width="36.70588235294118"/><title>walking → Palermo: 13</title></g><g style="mix-blend-mode: multiply;"><path d="M5,499.0588235294117C392.5,499.0588235294117,392.5,460.6470588235295,780,460.6470588235295" stroke="#c71e1d" stroke-width="25.411764705882355"/><title>in passenger vehicle → Recoleta: 9</title></g><g style="mix-blend-mode: multiply;"><path d="M5,278.0588235294117C392.5,278.0588235294117,392.5,103.00000000000001,780,103.00000000000001" stroke="#00dca6" stroke-width="5.647058823529412"/><title>walking → Saavedra: 2</title></g><g style="mix-blend-mode: multiply;"><path d="M5,412.9411764705881C392.5,412.9411764705881,392.5,111.47058823529412,780,111.47058823529412" stroke="#c71e1d" stroke-width="11.294117647058824"/><title>in passenger vehicle → Saavedra: 4</title></g><g style="mix-blend-mode: multiply;"><path d="M5,386.11764705882354C392.5,386.11764705882354,392.5,1.4117647058822962,780,1.4117647058822962" stroke="#c71e1d" stroke-width="2.823529411764706"/><title>in passenger vehicle → Boedo: 1</title></g><g style="mix-blend-mode: multiply;"><path d="M5,525.8823529411765C392.5,525.8823529411765,392.5,565.8823529411766,780,565.8823529411766" stroke="#c71e1d" stroke-width="28.23529411764706"/><title>in passenger vehicle → Palermo: 10</title></g><g style="mix-blend-mode: multiply;"><path d="M5,388.94117647058823C392.5,388.94117647058823,392.5,9.235294117646992,780,9.235294117646992" stroke="#c71e1d" stroke-width="2.823529411764706"/><title>in passenger vehicle → Villa Urquiza: 1</title></g><g style="mix-blend-mode: multiply;"><path d="M5,391.7647058823529C392.5,391.7647058823529,392.5,17.058823529411686,780,17.058823529411686" stroke="#c71e1d" stroke-width="2.823529411764706"/><title>in passenger vehicle → Agronomía: 1</title></g><g style="mix-blend-mode: multiply;"><path d="M5,331.7058823529411C392.5,331.7058823529411,392.5,436.64705882352956,780,436.64705882352956" stroke="#00dca6" stroke-width="22.58823529411765"/><title>walking → Recoleta: 8</title></g><g style="mix-blend-mode: multiply;"><path d="M5,394.5882352941176C392.5,394.5882352941176,392.5,24.882352941176382,780,24.882352941176382" stroke="#c71e1d" stroke-width="2.823529411764706"/><title>in passenger vehicle → Villa Ortúzar: 1</title></g><g style="mix-blend-mode: multiply;"><path d="M5,175.64705882352936C392.5,175.64705882352936,392.5,32.70588235294108,780,32.70588235294108" stroke="#ffca76" stroke-width="2.823529411764706"/><title>subway → Villa Pueyrredón: 1</title></g><g style="mix-blend-mode: multiply;"><path d="M5,397.4117647058823C392.5,397.4117647058823,392.5,40.52941176470578,780,40.52941176470578" stroke="#c71e1d" stroke-width="2.823529411764706"/><title>in passenger vehicle → Santa Clara del Mar: 1</title></g><g style="mix-blend-mode: multiply;"><path d="M5,400.235294117647C392.5,400.235294117647,392.5,48.35294117647047,780,48.35294117647047" stroke="#c71e1d" stroke-width="2.823529411764706"/><title>in passenger vehicle → Mar del Plata: 1</title></g><g style="mix-blend-mode: multiply;"><path d="M5,111.35294117647058C392.5,111.35294117647058,392.5,178.70588235294125,780,178.70588235294125" stroke="#508b0d" stroke-width="8.470588235294118"/><title>cycling → Almagro: 3</title></g><g style="mix-blend-mode: multiply;"><path d="M5,438.3529411764705C392.5,438.3529411764705,392.5,216.1764705882353,780,216.1764705882353" stroke="#c71e1d" stroke-width="11.294117647058824"/><title>in passenger vehicle → San Telmo: 4</title></g><g style="mix-blend-mode: multiply;"><path d="M5,76.70588235294117C392.5,76.70588235294117,392.5,399.9411764705883,780,399.9411764705883" stroke="#4a4a4a" stroke-width="11.294117647058824"/><title>bus → Recoleta: 4</title></g><g style="mix-blend-mode: multiply;"><path d="M5,102.88235294117645C392.5,102.88235294117645,392.5,85.29411764705881,780,85.29411764705881" stroke="#508b0d" stroke-width="2.823529411764706"/><title>cycling → Caballito: 1</title></g><g style="mix-blend-mode: multiply;"><path d="M5,191.17647058823522C392.5,191.17647058823522,392.5,149.70588235294122,780,149.70588235294122" stroke="#ffca76" stroke-width="5.647058823529412"/><title>subway → Villa del Parque: 2</title></g><g style="mix-blend-mode: multiply;"><path d="M5,135.35294117647058C392.5,135.35294117647058,392.5,338.4705882352942,780,338.4705882352942" stroke="#508b0d" stroke-width="22.58823529411765"/><title>cycling → Monserrat: 8</title></g><g style="mix-blend-mode: multiply;"><path d="M5,428.47058823529403C392.5,428.47058823529403,392.5,159.5882352941177,780,159.5882352941177" stroke="#c71e1d" stroke-width="8.470588235294118"/><title>in passenger vehicle → Villa del Parque: 3</title></g><g style="mix-blend-mode: multiply;"><path d="M5,217.99999999999994C392.5,217.99999999999994,392.5,242.35294117647064,780,242.35294117647064" stroke="#ffca76" stroke-width="14.11764705882353"/><title>subway → Puerto Madero: 5</title></g><g style="mix-blend-mode: multiply;"><path d="M5,59.764705882352935C392.5,59.764705882352935,392.5,274.1764705882353,780,274.1764705882353" stroke="#4a4a4a" stroke-width="5.647058823529412"/><title>bus → Belgrano: 2</title></g><g style="mix-blend-mode: multiply;"><path d="M5,462.35294117647055C392.5,462.35294117647055,392.5,303.82352941176464,780,303.82352941176464" stroke="#c71e1d" stroke-width="19.764705882352942"/><title>in passenger vehicle → Belgrano: 7</title></g><g style="mix-blend-mode: multiply;"><path d="M5,182.7058823529411C392.5,182.7058823529411,392.5,73.23529411764703,780,73.23529411764703" stroke="#ffca76" stroke-width="5.647058823529412"/><title>subway → Balvanera: 2</title></g><g style="mix-blend-mode: multiply;"><path d="M5,290.76470588235287C392.5,290.76470588235287,392.5,209.11764705882354,780,209.11764705882354" stroke="#00dca6" stroke-width="2.823529411764706"/><title>walking → San Telmo: 1</title></g><g style="mix-blend-mode: multiply;"><path d="M5,313.3529411764705C392.5,313.3529411764705,392.5,368.1176470588236,780,368.1176470588236" stroke="#00dca6" stroke-width="14.11764705882353"/><title>walking → Monserrat: 5</title></g><g style="mix-blend-mode: multiply;"><path d="M5,247.64705882352936C392.5,247.64705882352936,392.5,419.7058823529413,780,419.7058823529413" stroke="#ffca76" stroke-width="11.294117647058824"/><title>subway → Recoleta: 4</title></g><g style="mix-blend-mode: multiply;"><path d="M5,162.17647058823528C392.5,162.17647058823528,392.5,496.7058823529413,780,496.7058823529413" stroke="#508b0d" stroke-width="14.11764705882353"/><title>cycling → Palermo: 5</title></g><g style="mix-blend-mode: multiply;"><path d="M5,405.8823529411764C392.5,405.8823529411764,392.5,93.76470588235293,780,93.76470588235293" stroke="#c71e1d" stroke-width="2.823529411764706"/><title>in passenger vehicle → Caballito: 1</title></g><g style="mix-blend-mode: multiply;"><path d="M5,105.70588235294116C392.5,105.70588235294116,392.5,145.47058823529417,780,145.47058823529417" stroke="#508b0d" stroke-width="2.823529411764706"/><title>cycling → Villa del Parque: 1</title></g><g style="mix-blend-mode: multiply;"><path d="M5,479.2941176470588C392.5,479.2941176470588,392.5,382.23529411764713,780,382.23529411764713" stroke="#c71e1d" stroke-width="14.11764705882353"/><title>in passenger vehicle → Monserrat: 5</title></g><g style="mix-blend-mode: multiply;"><path d="M5,198.23529411764702C392.5,198.23529411764702,392.5,187.17647058823536,780,187.17647058823536" stroke="#ffca76" stroke-width="8.470588235294118"/><title>subway → Almagro: 3</title></g><g style="mix-blend-mode: multiply;"><path d="M5,116.99999999999999C392.5,116.99999999999999,392.5,197.82352941176472,780,197.82352941176472" stroke="#508b0d" stroke-width="2.823529411764706"/><title>cycling → San Telmo: 1</title></g><g style="mix-blend-mode: multiply;"><path d="M5,258.9411764705882C392.5,258.9411764705882,392.5,509.41176470588243,780,509.41176470588243" stroke="#ffca76" stroke-width="11.294117647058824"/><title>subway → Palermo: 4</title></g><g style="mix-blend-mode: multiply;"><path d="M5,52.705882352941174C392.5,52.705882352941174,392.5,231.05882352941182,780,231.05882352941182" stroke="#4a4a4a" stroke-width="8.470588235294118"/><title>bus → Puerto Madero: 3</title></g><g style="mix-blend-mode: multiply;"><path d="M5,150.88235294117646C392.5,150.88235294117646,392.5,409.8235294117648,780,409.8235294117648" stroke="#508b0d" stroke-width="8.470588235294118"/><title>cycling → Recoleta: 3</title></g><g style="mix-blend-mode: multiply;"><path d="M5,206.70588235294113C392.5,206.70588235294113,392.5,203.47058823529414,780,203.47058823529414" stroke="#ffca76" stroke-width="8.470588235294118"/><title>subway → San Telmo: 3</title></g><g style="mix-blend-mode: multiply;"><path d="M5,227.8823529411764C392.5,227.8823529411764,392.5,285.4705882352941,780,285.4705882352941" stroke="#ffca76" stroke-width="5.647058823529412"/><title>subway → Belgrano: 2</title></g><g style="mix-blend-mode: multiply;"><path d="M5,88C392.5,88,392.5,484.00000000000006,780,484.00000000000006" stroke="#4a4a4a" stroke-width="11.294117647058824"/><title>bus → Palermo: 4</title></g><g style="mix-blend-mode: multiply;"><path d="M5,178.47058823529406C392.5,178.47058823529406,392.5,56.17647058823517,780,56.17647058823517" stroke="#ffca76" stroke-width="2.823529411764706"/><title>subway → Villa Crespo: 1</title></g><g style="mix-blend-mode: multiply;"><path d="M5,66.82352941176471C392.5,66.82352941176471,392.5,322.9411764705883,780,322.9411764705883" stroke="#4a4a4a" stroke-width="8.470588235294118"/><title>bus → Monserrat: 3</title></g><g style="mix-blend-mode: multiply;"><path d="M5,121.23529411764706C392.5,121.23529411764706,392.5,279.8235294117647,780,279.8235294117647" stroke="#508b0d" stroke-width="5.647058823529412"/><title>cycling → Belgrano: 2</title></g><g style="mix-blend-mode: multiply;"><path d="M5,448.235294117647C392.5,448.235294117647,392.5,262.1176470588236,780,262.1176470588236" stroke="#c71e1d" stroke-width="8.470588235294118"/><title>in passenger vehicle → Puerto Madero: 3</title></g><g style="mix-blend-mode: multiply;"><path d="M5,45.647058823529406C392.5,45.647058823529406,392.5,171.64705882352945,780,171.64705882352945" stroke="#4a4a4a" stroke-width="5.647058823529412"/><title>bus → Almagro: 2</title></g><g style="mix-blend-mode: multiply;"><path d="M5,296.41176470588226C392.5,296.41176470588226,392.5,253.64705882352948,780,253.64705882352948" stroke="#00dca6" stroke-width="8.470588235294118"/><title>walking → Puerto Madero: 3</title></g><g style="mix-blend-mode: multiply;"><path d="M5,283.7058823529411C392.5,283.7058823529411,392.5,130.58823529411765,780,130.58823529411765" stroke="#00dca6" stroke-width="5.647058823529412"/><title>walking → Parque Chacabuco: 2</title></g><g style="mix-blend-mode: multiply;"><path d="M5,236.35294117647055C392.5,236.35294117647055,392.5,355.4117647058824,780,355.4117647058824" stroke="#ffca76" stroke-width="11.294117647058824"/><title>subway → Monserrat: 4</title></g><g style="mix-blend-mode: multiply;"><path d="M5,272.4117647058823C392.5,272.4117647058823,392.5,89.52941176470588,780,89.52941176470588" stroke="#00dca6" stroke-width="5.647058823529412"/><title>walking → Caballito: 2</title></g><g style="mix-blend-mode: multiply;"><path d="M5,403.0588235294117C392.5,403.0588235294117,392.5,77.47058823529407,780,77.47058823529407" stroke="#c71e1d" stroke-width="2.823529411764706"/><title>in passenger vehicle → Balvanera: 1</title></g><g style="mix-blend-mode: multiply;"><path d="M5,186.94117647058818C392.5,186.94117647058818,392.5,126.3529411764706,780,126.3529411764706" stroke="#ffca76" stroke-width="2.823529411764706"/><title>subway → Parque Chacabuco: 1</title></g><g style="mix-blend-mode: multiply;"><path d="M5,421.41176470588226C392.5,421.41176470588226,392.5,136.23529411764707,780,136.23529411764707" stroke="#c71e1d" stroke-width="5.647058823529412"/><title>in passenger vehicle → Parque Chacabuco: 2</title></g><g style="mix-blend-mode: multiply;"><path d="M5,303.47058823529403C392.5,303.47058823529403,392.5,291.1176470588235,780,291.1176470588235" stroke="#00dca6" stroke-width="5.647058823529412"/><title>walking → Belgrano: 2</title></g><g style="mix-blend-mode: multiply;"><path d="M5,100.05882352941174C392.5,100.05882352941174,392.5,63.99999999999992,780,63.99999999999992" stroke="#508b0d" stroke-width="2.823529411764706"/><title>cycling → San Nicolás: 1</title></g><g style="mix-blend-mode: multiply;"><path d="M5,287.9411764705882C392.5,287.9411764705882,392.5,153.9411764705883,780,153.9411764705883" stroke="#00dca6" stroke-width="2.823529411764706"/><title>walking → Villa del Parque: 1</title></g><g style="mix-blend-mode: multiply;"><path d="M5,41.411764705882355C392.5,41.411764705882355,392.5,123.52941176470588,780,123.52941176470588" stroke="#4a4a4a" stroke-width="2.823529411764706"/><title>bus → Parque Chacabuco: 1</title></g></g><g><text x="776" y="1.411764705882291" text-anchor="end"><tspan alignment-baseline="middle" x="776" style="font-family: Arial, sans-serif; font-size: 10px; fill: black; font-weight: bold;">Boedo</tspan></text><text x="776" y="9.235294117646987" text-anchor="end"><tspan alignment-baseline="middle" x="776" style="font-family: Arial, sans-serif; font-size: 10px; fill: black; font-weight: bold;">Villa Urquiza</tspan></text><text x="776" y="17.058823529411683" text-anchor="end"><tspan alignment-baseline="middle" x="776" style="font-family: Arial, sans-serif; font-size: 10px; fill: black; font-weight: bold;">Agronomía</tspan></text><text x="776" y="24.88235294117638" text-anchor="end"><tspan alignment-baseline="middle" x="776" style="font-family: Arial, sans-serif; font-size: 10px; fill: black; font-weight: bold;">Villa Ortúzar</tspan></text><text x="776" y="32.705882352941074" text-anchor="end"><tspan alignment-baseline="middle" x="776" style="font-family: Arial, sans-serif; font-size: 10px; fill: black; font-weight: bold;">Villa Pueyrredón</tspan></text><text x="776" y="40.52941176470577" text-anchor="end"><tspan alignment-baseline="middle" x="776" style="font-family: Arial, sans-serif; font-size: 10px; fill: black; font-weight: bold;">Santa Clara del Mar</tspan></text><text x="776" y="48.352941176470466" text-anchor="end"><tspan alignment-baseline="middle" x="776" style="font-family: Arial, sans-serif; font-size: 10px; fill: black; font-weight: bold;">Mar del Plata</tspan></text><text x="776" y="56.17647058823519" text-anchor="end"><tspan alignment-baseline="middle" x="776" style="font-family: Arial, sans-serif; font-size: 10px; fill: black; font-weight: bold;">Villa Crespo</tspan></text><text x="776" y="63.99999999999994" text-anchor="end"><tspan alignment-baseline="middle" x="776" style="font-family: Arial, sans-serif; font-size: 10px; fill: black; font-weight: bold;">San Nicolás</tspan></text><text x="776" y="74.64705882352939" text-anchor="end"><tspan alignment-baseline="middle" x="776" style="font-family: Arial, sans-serif; font-size: 10px; fill: black; font-weight: bold;">Balvanera</tspan></text><text x="776" y="89.52941176470588" text-anchor="end"><tspan alignment-baseline="middle" x="776" style="font-family: Arial, sans-serif; font-size: 10px; fill: black; font-weight: bold;">Caballito</tspan></text><text x="776" y="108.64705882352942" text-anchor="end"><tspan alignment-baseline="middle" x="776" style="font-family: Arial, sans-serif; font-size: 10px; fill: black; font-weight: bold;">Saavedra</tspan></text><text x="776" y="130.58823529411768" text-anchor="end"><tspan alignment-baseline="middle" x="776" style="font-family: Arial, sans-serif; font-size: 10px; fill: black; font-weight: bold;">Parque Chacabuco</tspan></text><text x="776" y="153.9411764705883" text-anchor="end"><tspan alignment-baseline="middle" x="776" style="font-family: Arial, sans-serif; font-size: 10px; fill: black; font-weight: bold;">Villa del Parque</tspan></text><text x="776" y="180.11764705882356" text-anchor="end"><tspan alignment-baseline="middle" x="776" style="font-family: Arial, sans-serif; font-size: 10px; fill: black; font-weight: bold;">Almagro</tspan></text><text x="776" y="209.11764705882356" text-anchor="end"><tspan alignment-baseline="middle" x="776" style="font-family: Arial, sans-serif; font-size: 10px; fill: black; font-weight: bold;">San Telmo</tspan></text><text x="776" y="246.58823529411768" text-anchor="end"><tspan alignment-baseline="middle" x="776" style="font-family: Arial, sans-serif; font-size: 10px; fill: black; font-weight: bold;">Puerto Madero</tspan></text><text x="776" y="292.5294117647059" text-anchor="end"><tspan alignment-baseline="middle" x="776" style="font-family: Arial, sans-serif; font-size: 10px; fill: black; font-weight: bold;">Belgrano</tspan></text><text x="9" y="66.8235294117647" text-anchor="start"><tspan alignment-baseline="middle" x="9" style="font-family: Arial, sans-serif; font-size: 10px; fill: black; font-weight: bold;">bus</tspan></text><text x="9" y="133.9411764705882" text-anchor="start"><tspan alignment-baseline="middle" x="9" style="font-family: Arial, sans-serif; font-size: 10px; fill: black; font-weight: bold;">cycling</tspan></text><text x="776" y="354.00000000000006" text-anchor="end"><tspan alignment-baseline="middle" x="776" style="font-family: Arial, sans-serif; font-size: 10px; fill: black; font-weight: bold;">Monserrat</tspan></text><text x="776" y="433.82352941176475" text-anchor="end"><tspan alignment-baseline="middle" x="776" style="font-family: Arial, sans-serif; font-size: 10px; fill: black; font-weight: bold;">Recoleta</tspan></text><text x="9" y="219.41176470588232" text-anchor="start"><tspan alignment-baseline="middle" x="9" style="font-family: Arial, sans-serif; font-size: 10px; fill: black; font-weight: bold;">subway</tspan></text><text x="776" y="529.1764705882354" text-anchor="end"><tspan alignment-baseline="middle" x="776" style="font-family: Arial, sans-serif; font-size: 10px; fill: black; font-weight: bold;">Palermo</tspan></text><text x="9" y="324.6470588235294" text-anchor="start"><tspan alignment-baseline="middle" x="9" style="font-family: Arial, sans-serif; font-size: 10px; fill: black; font-weight: bold;">walking</tspan></text><text x="9" y="462.3529411764706" text-anchor="start"><tspan alignment-baseline="middle" x="9" style="font-family: Arial, sans-serif; font-size: 10px; fill: black; font-weight: bold;">in passenger vehicle</tspan></text></g><g><text x="782.5" y="-4.000000000000057" text-anchor="middle" style="font-family: Arial, sans-serif; font-size: 12px; fill: rgb(123, 123, 123); font-weight: bold;">barrio</text><text x="2.5" y="36" text-anchor="middle" style="font-family: Arial, sans-serif; font-size: 12px; fill: rgb(123, 123, 123); font-weight: bold;">actividad</text></g></g></svg>