<svg xmlns="http://www.w3.org/2000/svg" width="805" height="600"><rect width="805" height="600" x="0" y="0" fill="#FFFFFF" id="background"/><g transform="translate(10,10)" id="visualization"><g><rect x="0" y="-5.684341886080802e-14" height="2.823529411764696" width="5" fill="black"><title>Boedo: 1</title></rect><rect x="0" y="7.823529411764639" height="2.823529411764696" width="5" fill="black"><title>Villa Urquiza: 1</title></rect><rect x="0" y="15.647058823529335" height="2.823529411764696" width="5" fill="black"><title>Agronomía: 1</title></rect><rect x="0" y="23.47058823529403" height="2.823529411764696" width="5" fill="black"><title>Villa Ortúzar: 1</title></rect><rect x="0" y="31.294117647058727" height="2.823529411764696" width="5" fill="black"><title>Villa Pueyrredón: 1</title></rect><rect x="0" y="39.11764705882342" height="2.823529411764696" width="5" fill="black"><title>Santa Clara del Mar: 1</title></rect><rect x="0" y="46.94117647058812" height="2.823529411764696" width="5" fill="black"><title>Mar del Plata: 1</title></rect><rect x="0" y="54.764705882352814" height="2.8235294117647527" width="5" fill="black"><title>Villa Crespo: 1</title></rect><rect x="0" y="62.58823529411757" height="2.8235294117647527" width="5" fill="black"><title>San Nicolás: 1</title></rect><rect x="0" y="70.41176470588232" height="8.470588235294144" width="5" fill="black"><title>Balvanera: 3</title></rect><rect x="0" y="83.88235294117646" height="11.29411764705884" width="5" fill="black"><title>Caballito: 4</title></rect><rect x="0" y="100.1764705882353" height="16.941176470588232" width="5" fill="black"><title>Saavedra: 6</title></rect><rect x="0" y="122.11764705882354" height="16.94117647058829" width="5" fill="black"><title>Parque Chacabuco: 6</title></rect><rect x="0" y="144.05882352941182" height="19.764705882352928" width="5" fill="black"><title>Villa del Parque: 7</title></rect><rect x="0" y="168.82352941176475" height="22.588235294117624" width="5" fill="black"><title>Almagro: 8</title></rect><rect x="0" y="196.41176470588238" height="25.411764705882376" width="5" fill="black"><title>San Telmo: 9</title></rect><rect x="0" y="226.82352941176475" height="39.529411764705856" width="5" fill="black"><title>Puerto Madero: 14</title></rect><rect x="0" y="271.3529411764706" height="42.35294117647061" width="5" fill="black"><title>Belgrano: 15</title></rect><rect x="780" y="40" height="53.64705882352939" width="5" fill="black"><title>bus: 19</title></rect><rect x="780" y="98.64705882352939" height="70.58823529411762" width="5" fill="black"><title>cycling: 25</title></rect><rect x="0" y="318.7058823529412" height="70.58823529411768" width="5" fill="black"><title>Monserrat: 25</title></rect><rect x="0" y="394.2941176470589" height="79.05882352941177" width="5" fill="black"><title>Recoleta: 28</title></rect><rect x="780" y="174.23529411764702" height="90.35294117647061" width="5" fill="black"><title>subway: 32</title></rect><rect x="0" y="478.35294117647067" height="101.64705882352945" width="5" fill="black"><title>Palermo: 36</title></rect><rect x="780" y="269.5882352941176" height="110.11764705882354" width="5" fill="black"><title>walking: 39</title></rect><rect x="780" y="384.70588235294116" height="155.29411764705884" width="5" fill="black"><title>in passenger vehicle: 55</title></rect></g><g fill="none" stroke-opacity="1"><g style="mix-blend-mode: multiply;"><path d="M5,533.4117647058824C392.5,533.4117647058824,392.5,361.3529411764705,780,361.3529411764705" stroke="#bcbd22" stroke-width="36.70588235294118"/><title>Palermo → walking: 13</title></g><g style="mix-blend-mode: multiply;"><path d="M5,460.6470588235295C392.5,460.6470588235295,392.5,499.0588235294117,780,499.0588235294117" stroke="#4aa6a3" stroke-width="25.411764705882355"/><title>Recoleta → in passenger vehicle: 9</title></g><g style="mix-blend-mode: multiply;"><path d="M5,103.00000000000001C392.5,103.00000000000001,392.5,278.0588235294117,780,278.0588235294117" stroke="#cf33a0" stroke-width="5.647058823529412"/><title>Saavedra → walking: 2</title></g><g style="mix-blend-mode: multiply;"><path d="M5,111.47058823529412C392.5,111.47058823529412,392.5,412.9411764705881,780,412.9411764705881" stroke="#cf33a0" stroke-width="11.294117647058824"/><title>Saavedra → in passenger vehicle: 4</title></g><g style="mix-blend-mode: multiply;"><path d="M5,1.4117647058822962C392.5,1.4117647058822962,392.5,386.11764705882354,780,386.11764705882354" stroke="#9467bd" stroke-width="2.823529411764706"/><title>Boedo → in passenger vehicle: 1</title></g><g style="mix-blend-mode: multiply;"><path d="M5,565.8823529411766C392.5,565.8823529411766,392.5,525.8823529411765,780,525.8823529411765" stroke="#bcbd22" stroke-width="28.23529411764706"/><title>Palermo → in passenger vehicle: 10</title></g><g style="mix-blend-mode: multiply;"><path d="M5,9.235294117646992C392.5,9.235294117646992,392.5,388.94117647058823,780,388.94117647058823" stroke="#cccccc" stroke-width="2.823529411764706"/><title>Villa Urquiza → in passenger vehicle: 1</title></g><g style="mix-blend-mode: multiply;"><path d="M5,17.058823529411686C392.5,17.058823529411686,392.5,391.7647058823529,780,391.7647058823529" stroke="#1f77b4" stroke-width="2.823529411764706"/><title>Agronomía → in passenger vehicle: 1</title></g><g style="mix-blend-mode: multiply;"><path d="M5,436.64705882352956C392.5,436.64705882352956,392.5,331.7058823529411,780,331.7058823529411" stroke="#4aa6a3" stroke-width="22.58823529411765"/><title>Recoleta → walking: 8</title></g><g style="mix-blend-mode: multiply;"><path d="M5,24.882352941176382C392.5,24.882352941176382,392.5,394.5882352941176,780,394.5882352941176" stroke="#cccccc" stroke-width="2.823529411764706"/><title>Villa Ortúzar → in passenger vehicle: 1</title></g><g style="mix-blend-mode: multiply;"><path d="M5,32.70588235294108C392.5,32.70588235294108,392.5,175.64705882352936,780,175.64705882352936" stroke="#cccccc" stroke-width="2.823529411764706"/><title>Villa Pueyrredón → subway: 1</title></g><g style="mix-blend-mode: multiply;"><path d="M5,40.52941176470578C392.5,40.52941176470578,392.5,397.4117647058823,780,397.4117647058823" stroke="#417505" stroke-width="2.823529411764706"/><title>Santa Clara del Mar → in passenger vehicle: 1</title></g><g style="mix-blend-mode: multiply;"><path d="M5,48.35294117647047C392.5,48.35294117647047,392.5,400.235294117647,780,400.235294117647" stroke="#e377c2" stroke-width="2.823529411764706"/><title>Mar del Plata → in passenger vehicle: 1</title></g><g style="mix-blend-mode: multiply;"><path d="M5,178.70588235294125C392.5,178.70588235294125,392.5,111.35294117647058,780,111.35294117647058" stroke="#ff7f0e" stroke-width="8.470588235294118"/><title>Almagro → cycling: 3</title></g><g style="mix-blend-mode: multiply;"><path d="M5,216.1764705882353C392.5,216.1764705882353,392.5,438.3529411764705,780,438.3529411764705" stroke="#64789b" stroke-width="11.294117647058824"/><title>San Telmo → in passenger vehicle: 4</title></g><g style="mix-blend-mode: multiply;"><path d="M5,399.9411764705883C392.5,399.9411764705883,392.5,76.70588235294117,780,76.70588235294117" stroke="#4aa6a3" stroke-width="11.294117647058824"/><title>Recoleta → bus: 4</title></g><g style="mix-blend-mode: multiply;"><path d="M5,85.29411764705881C392.5,85.29411764705881,392.5,102.88235294117645,780,102.88235294117645" stroke="#8c564b" stroke-width="2.823529411764706"/><title>Caballito → cycling: 1</title></g><g style="mix-blend-mode: multiply;"><path d="M5,149.70588235294122C392.5,149.70588235294122,392.5,191.17647058823522,780,191.17647058823522" stroke="#793a94" stroke-width="5.647058823529412"/><title>Villa del Parque → subway: 2</title></g><g style="mix-blend-mode: multiply;"><path d="M5,338.4705882352942C392.5,338.4705882352942,392.5,135.35294117647058,780,135.35294117647058" stroke="#7f7f7f" stroke-width="22.58823529411765"/><title>Monserrat → cycling: 8</title></g><g style="mix-blend-mode: multiply;"><path d="M5,159.5882352941177C392.5,159.5882352941177,392.5,428.47058823529403,780,428.47058823529403" stroke="#793a94" stroke-width="8.470588235294118"/><title>Villa del Parque → in passenger vehicle: 3</title></g><g style="mix-blend-mode: multiply;"><path d="M5,242.35294117647064C392.5,242.35294117647064,392.5,217.99999999999994,780,217.99999999999994" stroke="#b8e986" stroke-width="14.11764705882353"/><title>Puerto Madero → subway: 5</title></g><g style="mix-blend-mode: multiply;"><path d="M5,274.1764705882353C392.5,274.1764705882353,392.5,59.764705882352935,780,59.764705882352935" stroke="#d62728" stroke-width="5.647058823529412"/><title>Belgrano → bus: 2</title></g><g style="mix-blend-mode: multiply;"><path d="M5,303.82352941176464C392.5,303.82352941176464,392.5,462.35294117647055,780,462.35294117647055" stroke="#d62728" stroke-width="19.764705882352942"/><title>Belgrano → in passenger vehicle: 7</title></g><g style="mix-blend-mode: multiply;"><path d="M5,73.23529411764703C392.5,73.23529411764703,392.5,182.7058823529411,780,182.7058823529411" stroke="#2ca02c" stroke-width="5.647058823529412"/><title>Balvanera → subway: 2</title></g><g style="mix-blend-mode: multiply;"><path d="M5,209.11764705882354C392.5,209.11764705882354,392.5,290.76470588235287,780,290.76470588235287" stroke="#64789b" stroke-width="2.823529411764706"/><title>San Telmo → walking: 1</title></g><g style="mix-blend-mode: multiply;"><path d="M5,368.1176470588236C392.5,368.1176470588236,392.5,313.3529411764705,780,313.3529411764705" stroke="#7f7f7f" stroke-width="14.11764705882353"/><title>Monserrat → walking: 5</title></g><g style="mix-blend-mode: multiply;"><path d="M5,419.7058823529413C392.5,419.7058823529413,392.5,247.64705882352936,780,247.64705882352936" stroke="#4aa6a3" stroke-width="11.294117647058824"/><title>Recoleta → subway: 4</title></g><g style="mix-blend-mode: multiply;"><path d="M5,496.7058823529413C392.5,496.7058823529413,392.5,162.17647058823528,780,162.17647058823528" stroke="#bcbd22" stroke-width="14.11764705882353"/><title>Palermo → cycling: 5</title></g><g style="mix-blend-mode: multiply;"><path d="M5,93.76470588235293C392.5,93.76470588235293,392.5,405.8823529411764,780,405.8823529411764" stroke="#8c564b" stroke-width="2.823529411764706"/><title>Caballito → in passenger vehicle: 1</title></g><g style="mix-blend-mode: multiply;"><path d="M5,145.47058823529417C392.5,145.47058823529417,392.5,105.70588235294116,780,105.70588235294116" stroke="#793a94" stroke-width="2.823529411764706"/><title>Villa del Parque → cycling: 1</title></g><g style="mix-blend-mode: multiply;"><path d="M5,382.23529411764713C392.5,382.23529411764713,392.5,479.2941176470588,780,479.2941176470588" stroke="#7f7f7f" stroke-width="14.11764705882353"/><title>Monserrat → in passenger vehicle: 5</title></g><g style="mix-blend-mode: multiply;"><path d="M5,187.17647058823536C392.5,187.17647058823536,392.5,198.23529411764702,780,198.23529411764702" stroke="#ff7f0e" stroke-width="8.470588235294118"/><title>Almagro → subway: 3</title></g><g style="mix-blend-mode: multiply;"><path d="M5,197.82352941176472C392.5,197.82352941176472,392.5,116.99999999999999,780,116.99999999999999" stroke="#64789b" stroke-width="2.823529411764706"/><title>San Telmo → cycling: 1</title></g><g style="mix-blend-mode: multiply;"><path d="M5,509.41176470588243C392.5,509.41176470588243,392.5,258.9411764705882,780,258.9411764705882" stroke="#bcbd22" stroke-width="11.294117647058824"/><title>Palermo → subway: 4</title></g><g style="mix-blend-mode: multiply;"><path d="M5,231.05882352941182C392.5,231.05882352941182,392.5,52.705882352941174,780,52.705882352941174" stroke="#b8e986" stroke-width="8.470588235294118"/><title>Puerto Madero → bus: 3</title></g><g style="mix-blend-mode: multiply;"><path d="M5,409.8235294117648C392.5,409.8235294117648,392.5,150.88235294117646,780,150.88235294117646" stroke="#4aa6a3" stroke-width="8.470588235294118"/><title>Recoleta → cycling: 3</title></g><g style="mix-blend-mode: multiply;"><path d="M5,203.47058823529414C392.5,203.47058823529414,392.5,206.70588235294113,780,206.70588235294113" stroke="#64789b" stroke-width="8.470588235294118"/><title>San Telmo → subway: 3</title></g><g style="mix-blend-mode: multiply;"><path d="M5,285.4705882352941C392.5,285.4705882352941,392.5,227.8823529411764,780,227.8823529411764" stroke="#d62728" stroke-width="5.647058823529412"/><title>Belgrano → subway: 2</title></g><g style="mix-blend-mode: multiply;"><path d="M5,484.00000000000006C392.5,484.00000000000006,392.5,88,780,88" stroke="#bcbd22" stroke-width="11.294117647058824"/><title>Palermo → bus: 4</title></g><g style="mix-blend-mode: multiply;"><path d="M5,56.17647058823517C392.5,56.17647058823517,392.5,178.47058823529406,780,178.47058823529406" stroke="#cccccc" stroke-width="2.823529411764706"/><title>Villa Crespo → subway: 1</title></g><g style="mix-blend-mode: multiply;"><path d="M5,322.9411764705883C392.5,322.9411764705883,392.5,66.82352941176471,780,66.82352941176471" stroke="#7f7f7f" stroke-width="8.470588235294118"/><title>Monserrat → bus: 3</title></g><g style="mix-blend-mode: multiply;"><path d="M5,279.8235294117647C392.5,279.8235294117647,392.5,121.23529411764706,780,121.23529411764706" stroke="#d62728" stroke-width="5.647058823529412"/><title>Belgrano → cycling: 2</title></g><g style="mix-blend-mode: multiply;"><path d="M5,262.1176470588236C392.5,262.1176470588236,392.5,448.235294117647,780,448.235294117647" stroke="#b8e986" stroke-width="8.470588235294118"/><title>Puerto Madero → in passenger vehicle: 3</title></g><g style="mix-blend-mode: multiply;"><path d="M5,171.64705882352945C392.5,171.64705882352945,392.5,45.647058823529406,780,45.647058823529406" stroke="#ff7f0e" stroke-width="5.647058823529412"/><title>Almagro → bus: 2</title></g><g style="mix-blend-mode: multiply;"><path d="M5,253.64705882352948C392.5,253.64705882352948,392.5,296.41176470588226,780,296.41176470588226" stroke="#b8e986" stroke-width="8.470588235294118"/><title>Puerto Madero → walking: 3</title></g><g style="mix-blend-mode: multiply;"><path d="M5,130.58823529411765C392.5,130.58823529411765,392.5,283.7058823529411,780,283.7058823529411" stroke="#17becf" stroke-width="5.647058823529412"/><title>Parque Chacabuco → walking: 2</title></g><g style="mix-blend-mode: multiply;"><path d="M5,355.4117647058824C392.5,355.4117647058824,392.5,236.35294117647055,780,236.35294117647055" stroke="#7f7f7f" stroke-width="11.294117647058824"/><title>Monserrat → subway: 4</title></g><g style="mix-blend-mode: multiply;"><path d="M5,89.52941176470588C392.5,89.52941176470588,392.5,272.4117647058823,780,272.4117647058823" stroke="#8c564b" stroke-width="5.647058823529412"/><title>Caballito → walking: 2</title></g><g style="mix-blend-mode: multiply;"><path d="M5,77.47058823529407C392.5,77.47058823529407,392.5,403.0588235294117,780,403.0588235294117" stroke="#2ca02c" stroke-width="2.823529411764706"/><title>Balvanera → in passenger vehicle: 1</title></g><g style="mix-blend-mode: multiply;"><path d="M5,126.3529411764706C392.5,126.3529411764706,392.5,186.94117647058818,780,186.94117647058818" stroke="#17becf" stroke-width="2.823529411764706"/><title>Parque Chacabuco → subway: 1</title></g><g style="mix-blend-mode: multiply;"><path d="M5,136.23529411764707C392.5,136.23529411764707,392.5,421.41176470588226,780,421.41176470588226" stroke="#17becf" stroke-width="5.647058823529412"/><title>Parque Chacabuco → in passenger vehicle: 2</title></g><g style="mix-blend-mode: multiply;"><path d="M5,291.1176470588235C392.5,291.1176470588235,392.5,303.47058823529403,780,303.47058823529403" stroke="#d62728" stroke-width="5.647058823529412"/><title>Belgrano → walking: 2</title></g><g style="mix-blend-mode: multiply;"><path d="M5,63.99999999999992C392.5,63.99999999999992,392.5,100.05882352941174,780,100.05882352941174" stroke="#2a818b" stroke-width="2.823529411764706"/><title>San Nicolás → cycling: 1</title></g><g style="mix-blend-mode: multiply;"><path d="M5,153.9411764705883C392.5,153.9411764705883,392.5,287.9411764705882,780,287.9411764705882" stroke="#793a94" stroke-width="2.823529411764706"/><title>Villa del Parque → walking: 1</title></g><g style="mix-blend-mode: multiply;"><path d="M5,123.52941176470588C392.5,123.52941176470588,392.5,41.411764705882355,780,41.411764705882355" stroke="#17becf" stroke-width="2.823529411764706"/><title>Parque Chacabuco → bus: 1</title></g></g><g><text x="9" y="1.411764705882291" text-anchor="start"><tspan alignment-baseline="middle" x="9" style="font-family: Arial, sans-serif; font-size: 10px; fill: black; font-weight: bold;">Boedo</tspan></text><text x="9" y="9.235294117646987" text-anchor="start"><tspan alignment-baseline="middle" x="9" style="font-family: Arial, sans-serif; font-size: 10px; fill: black; font-weight: bold;">Villa Urquiza</tspan></text><text x="9" y="17.058823529411683" text-anchor="start"><tspan alignment-baseline="middle" x="9" style="font-family: Arial, sans-serif; font-size: 10px; fill: black; font-weight: bold;">Agronomía</tspan></text><text x="9" y="24.88235294117638" text-anchor="start"><tspan alignment-baseline="middle" x="9" style="font-family: Arial, sans-serif; font-size: 10px; fill: black; font-weight: bold;">Villa Ortúzar</tspan></text><text x="9" y="32.705882352941074" text-anchor="start"><tspan alignment-baseline="middle" x="9" style="font-family: Arial, sans-serif; font-size: 10px; fill: black; font-weight: bold;">Villa Pueyrredón</tspan></text><text x="9" y="40.52941176470577" text-anchor="start"><tspan alignment-baseline="middle" x="9" style="font-family: Arial, sans-serif; font-size: 10px; fill: black; font-weight: bold;">Santa Clara del Mar</tspan></text><text x="9" y="48.352941176470466" text-anchor="start"><tspan alignment-baseline="middle" x="9" style="font-family: Arial, sans-serif; font-size: 10px; fill: black; font-weight: bold;">Mar del Plata</tspan></text><text x="9" y="56.17647058823519" text-anchor="start"><tspan alignment-baseline="middle" x="9" style="font-family: Arial, sans-serif; font-size: 10px; fill: black; font-weight: bold;">Villa Crespo</tspan></text><text x="9" y="63.99999999999994" text-anchor="start"><tspan alignment-baseline="middle" x="9" style="font-family: Arial, sans-serif; font-size: 10px; fill: black; font-weight: bold;">San Nicolás</tspan></text><text x="9" y="74.64705882352939" text-anchor="start"><tspan alignment-baseline="middle" x="9" style="font-family: Arial, sans-serif; font-size: 10px; fill: black; font-weight: bold;">Balvanera</tspan></text><text x="9" y="89.52941176470588" text-anchor="start"><tspan alignment-baseline="middle" x="9" style="font-family: Arial, sans-serif; font-size: 10px; fill: black; font-weight: bold;">Caballito</tspan></text><text x="9" y="108.64705882352942" text-anchor="start"><tspan alignment-baseline="middle" x="9" style="font-family: Arial, sans-serif; font-size: 10px; fill: black; font-weight: bold;">Saavedra</tspan></text><text x="9" y="130.58823529411768" text-anchor="start"><tspan alignment-baseline="middle" x="9" style="font-family: Arial, sans-serif; font-size: 10px; fill: black; font-weight: bold;">Parque Chacabuco</tspan></text><text x="9" y="153.9411764705883" text-anchor="start"><tspan alignment-baseline="middle" x="9" style="font-family: Arial, sans-serif; font-size: 10px; fill: black; font-weight: bold;">Villa del Parque</tspan></text><text x="9" y="180.11764705882356" text-anchor="start"><tspan alignment-baseline="middle" x="9" style="font-family: Arial, sans-serif; font-size: 10px; fill: black; font-weight: bold;">Almagro</tspan></text><text x="9" y="209.11764705882356" text-anchor="start"><tspan alignment-baseline="middle" x="9" style="font-family: Arial, sans-serif; font-size: 10px; fill: black; font-weight: bold;">San Telmo</tspan></text><text x="9" y="246.58823529411768" text-anchor="start"><tspan alignment-baseline="middle" x="9" style="font-family: Arial, sans-serif; font-size: 10px; fill: black; font-weight: bold;">Puerto Madero</tspan></text><text x="9" y="292.5294117647059" text-anchor="start"><tspan alignment-baseline="middle" x="9" style="font-family: Arial, sans-serif; font-size: 10px; fill: black; font-weight: bold;">Belgrano</tspan></text><text x="776" y="66.8235294117647" text-anchor="end"><tspan alignment-baseline="middle" x="776" style="font-family: Arial, sans-serif; font-size: 10px; fill: black; font-weight: bold;">bus</tspan></text><text x="776" y="133.9411764705882" text-anchor="end"><tspan alignment-baseline="middle" x="776" style="font-family: Arial, sans-serif; font-size: 10px; fill: black; font-weight: bold;">cycling</tspan></text><text x="9" y="354.00000000000006" text-anchor="start"><tspan alignment-baseline="middle" x="9" style="font-family: Arial, sans-serif; font-size: 10px; fill: black; font-weight: bold;">Monserrat</tspan></text><text x="9" y="433.82352941176475" text-anchor="start"><tspan alignment-baseline="middle" x="9" style="font-family: Arial, sans-serif; font-size: 10px; fill: black; font-weight: bold;">Recoleta</tspan></text><text x="776" y="219.41176470588232" text-anchor="end"><tspan alignment-baseline="middle" x="776" style="font-family: Arial, sans-serif; font-size: 10px; fill: black; font-weight: bold;">subway</tspan></text><text x="9" y="529.1764705882354" text-anchor="start"><tspan alignment-baseline="middle" x="9" style="font-family: Arial, sans-serif; font-size: 10px; fill: black; font-weight: bold;">Palermo</tspan></text><text x="776" y="324.6470588235294" text-anchor="end"><tspan alignment-baseline="middle" x="776" style="font-family: Arial, sans-serif; font-size: 10px; fill: black; font-weight: bold;">walking</tspan></text><text x="776" y="462.3529411764706" text-anchor="end"><tspan alignment-baseline="middle" x="776" style="font-family: Arial, sans-serif; font-size: 10px; fill: black; font-weight: bold;">in passenger vehicle</tspan></text></g><g><text x="2.5" y="-4.000000000000057" text-anchor="middle" style="font-family: Arial, sans-serif; font-size: 12px; fill: rgb(123, 123, 123); font-weight: bold;">barrio</text><text x="782.5" y="36" text-anchor="middle" style="font-family: Arial, sans-serif; font-size: 12px; fill: rgb(123, 123, 123); font-weight: bold;">actividad</text></g></g></svg>